<svg xmlns="http://www.w3.org/2000/svg" xmlns:xlink="http://www.w3.org/1999/xlink" width="200" zoomAndPan="magnify" viewBox="0 0 150 60" height="80" preserveAspectRatio="xMidYMid meet" version="1.0"><defs><g/></defs><rect x="-15" width="180" fill="#ffffff" y="-6" height="72" fill-opacity="1"/><rect x="-15" width="180" fill="#624430" y="-6" height="72" fill-opacity="1"/><g fill="#fae9d4" fill-opacity="1"><g transform="translate(5.251127, 38.001718)"><g><path d="M 2 0 L 2 -0.390625 C 2.550781 -0.523438 2.925781 -0.820312 3.125 -1.28125 C 3.320312 -1.738281 3.421875 -2.570312 3.421875 -3.78125 L 3.421875 -18.375 L 0.796875 -17.265625 L 0.75 -17.484375 L 5.625 -21 L 5.859375 -21 L 5.859375 -3.78125 C 5.859375 -2.570312 5.957031 -1.738281 6.15625 -1.28125 C 6.363281 -0.820312 6.742188 -0.523438 7.296875 -0.390625 L 7.296875 0 Z M 2 0 "/></g></g></g><g fill="#fae9d4" fill-opacity="1"><g transform="translate(14.244023, 38.001718)"><g><path d="M 2 0 L 2 -0.390625 C 2.550781 -0.523438 2.925781 -0.820312 3.125 -1.28125 C 3.320312 -1.738281 3.421875 -2.570312 3.421875 -3.78125 L 3.421875 -18.375 L 0.796875 -17.265625 L 0.75 -17.484375 L 5.625 -21 L 5.859375 -21 L 5.859375 -3.78125 C 5.859375 -2.570312 5.957031 -1.738281 6.15625 -1.28125 C 6.363281 -0.820312 6.742188 -0.523438 7.296875 -0.390625 L 7.296875 0 Z M 2 0 "/></g></g></g><g fill="#fae9d4" fill-opacity="1"><g transform="translate(23.23692, 38.001718)"><g><path d="M 3.328125 0.203125 C 2.910156 0.203125 2.546875 0.046875 2.234375 -0.265625 C 1.929688 -0.585938 1.78125 -0.96875 1.78125 -1.40625 C 1.78125 -1.84375 1.929688 -2.210938 2.234375 -2.515625 C 2.546875 -2.828125 2.910156 -2.984375 3.328125 -2.984375 C 3.742188 -2.984375 4.101562 -2.828125 4.40625 -2.515625 C 4.707031 -2.210938 4.859375 -1.84375 4.859375 -1.40625 C 4.859375 -0.96875 4.707031 -0.585938 4.40625 -0.265625 C 4.101562 0.046875 3.742188 0.203125 3.328125 0.203125 Z M 1.78125 -11.234375 C 1.78125 -11.660156 1.929688 -12.03125 2.234375 -12.34375 C 2.546875 -12.65625 2.910156 -12.8125 3.328125 -12.8125 C 3.742188 -12.8125 4.101562 -12.65625 4.40625 -12.34375 C 4.707031 -12.03125 4.859375 -11.660156 4.859375 -11.234375 C 4.859375 -10.796875 4.707031 -10.414062 4.40625 -10.09375 C 4.101562 -9.78125 3.742188 -9.625 3.328125 -9.625 C 2.910156 -9.625 2.546875 -9.78125 2.234375 -10.09375 C 1.929688 -10.414062 1.78125 -10.796875 1.78125 -11.234375 Z M 1.78125 -11.234375 "/></g></g></g><g fill="#fae9d4" fill-opacity="1"><g transform="translate(28.388479, 38.001718)"><g><path d="M 2 0 L 2 -0.390625 C 2.550781 -0.523438 2.925781 -0.820312 3.125 -1.28125 C 3.320312 -1.738281 3.421875 -2.570312 3.421875 -3.78125 L 3.421875 -18.375 L 0.796875 -17.265625 L 0.75 -17.484375 L 5.625 -21 L 5.859375 -21 L 5.859375 -3.78125 C 5.859375 -2.570312 5.957031 -1.738281 6.15625 -1.28125 C 6.363281 -0.820312 6.742188 -0.523438 7.296875 -0.390625 L 7.296875 0 Z M 2 0 "/></g></g></g><g fill="#fae9d4" fill-opacity="1"><g transform="translate(37.381375, 38.001718)"><g><path d="M 2 0 L 2 -0.390625 C 2.550781 -0.523438 2.925781 -0.820312 3.125 -1.28125 C 3.320312 -1.738281 3.421875 -2.570312 3.421875 -3.78125 L 3.421875 -18.375 L 0.796875 -17.265625 L 0.75 -17.484375 L 5.625 -21 L 5.859375 -21 L 5.859375 -3.78125 C 5.859375 -2.570312 5.957031 -1.738281 6.15625 -1.28125 C 6.363281 -0.820312 6.742188 -0.523438 7.296875 -0.390625 L 7.296875 0 Z M 2 0 "/></g></g></g><g fill="#fae9d4" fill-opacity="1"><g transform="translate(52.627616, 38.001718)"><g><path d="M 5.921875 0 L 5.921875 -0.390625 C 6.378906 -0.523438 6.691406 -0.820312 6.859375 -1.28125 C 7.035156 -1.738281 7.125 -2.570312 7.125 -3.78125 L 7.125 -20.375 L 5.65625 -20.375 C 4.320312 -20.375 3.304688 -20.164062 2.609375 -19.75 C 1.921875 -19.332031 1.316406 -18.585938 0.796875 -17.515625 L 0.46875 -17.578125 L 0.65625 -20.84375 L 16 -20.84375 L 16.171875 -17.578125 L 15.84375 -17.515625 C 15.34375 -18.585938 14.742188 -19.332031 14.046875 -19.75 C 13.359375 -20.164062 12.335938 -20.375 10.984375 -20.375 L 9.59375 -20.375 L 9.59375 -3.78125 C 9.59375 -2.570312 9.675781 -1.738281 9.84375 -1.28125 C 10.007812 -0.820312 10.320312 -0.523438 10.78125 -0.390625 L 10.78125 0 Z M 5.921875 0 "/></g></g></g><g fill="#fae9d4" fill-opacity="1"><g transform="translate(68.111993, 38.001718)"><g><path d="M 0.953125 0 L 0.953125 -0.390625 C 1.410156 -0.523438 1.722656 -0.820312 1.890625 -1.28125 C 2.054688 -1.738281 2.140625 -2.570312 2.140625 -3.78125 L 2.140625 -10.625 C 2.140625 -11.320312 2.09375 -11.84375 2 -12.1875 C 1.914062 -12.539062 1.789062 -12.796875 1.625 -12.953125 C 1.457031 -13.109375 1.234375 -13.25 0.953125 -13.375 L 0.953125 -13.703125 L 4.203125 -15.125 L 4.46875 -14.921875 L 4.46875 -11.203125 C 4.707031 -11.773438 5.019531 -12.304688 5.40625 -12.796875 C 5.789062 -13.296875 6.203125 -13.707031 6.640625 -14.03125 C 7.097656 -14.363281 7.597656 -14.625 8.140625 -14.8125 C 8.691406 -15 9.320312 -15.09375 10.03125 -15.09375 C 10.632812 -15.09375 11.109375 -15.023438 11.453125 -14.890625 C 11.796875 -14.753906 11.96875 -14.554688 11.96875 -14.296875 C 11.96875 -13.972656 11.8125 -13.609375 11.5 -13.203125 C 11.195312 -12.796875 10.78125 -12.59375 10.25 -12.59375 C 9.851562 -12.59375 9.347656 -12.664062 8.734375 -12.8125 C 8.128906 -12.96875 7.390625 -13.175781 6.515625 -13.4375 C 6.242188 -13.238281 5.953125 -12.929688 5.640625 -12.515625 C 5.335938 -12.109375 5.082031 -11.65625 4.875 -11.15625 C 4.664062 -10.664062 4.539062 -10.179688 4.5 -9.703125 L 4.46875 -9.703125 L 4.46875 -3.78125 C 4.46875 -2.570312 4.550781 -1.738281 4.71875 -1.28125 C 4.882812 -0.820312 5.195312 -0.523438 5.65625 -0.390625 L 5.65625 0 Z M 0.953125 0 "/></g></g></g><g fill="#fae9d4" fill-opacity="1"><g transform="translate(78.772309, 38.001718)"><g><path d="M 12.484375 0 C 11.878906 0 11.578125 -0.296875 11.578125 -0.890625 L 11.578125 -6.25 C 11.285156 -5.039062 10.820312 -3.9375 10.1875 -2.9375 C 9.550781 -1.945312 8.8125 -1.160156 7.96875 -0.578125 C 7.125 0.00390625 6.207031 0.296875 5.21875 0.296875 C 4.476562 0.296875 3.789062 0.148438 3.15625 -0.140625 C 2.519531 -0.441406 2.007812 -0.878906 1.625 -1.453125 C 1.238281 -2.035156 1.046875 -2.753906 1.046875 -3.609375 C 1.046875 -4.640625 1.351562 -5.484375 1.96875 -6.140625 C 2.582031 -6.796875 3.398438 -7.332031 4.421875 -7.75 C 5.441406 -8.164062 6.539062 -8.53125 7.71875 -8.84375 L 11.578125 -9.890625 C 11.503906 -11.335938 11.109375 -12.398438 10.390625 -13.078125 C 9.679688 -13.765625 8.691406 -14.109375 7.421875 -14.109375 C 6.523438 -14.109375 5.65625 -13.894531 4.8125 -13.46875 C 3.96875 -13.039062 3.164062 -12.375 2.40625 -11.46875 L 2.140625 -11.703125 C 2.992188 -12.753906 3.960938 -13.582031 5.046875 -14.1875 C 6.128906 -14.789062 7.316406 -15.09375 8.609375 -15.09375 C 10.410156 -15.09375 11.738281 -14.617188 12.59375 -13.671875 C 13.445312 -12.734375 13.875 -11.421875 13.875 -9.734375 L 13.875 -3.78125 C 13.875 -2.570312 13.957031 -1.738281 14.125 -1.28125 C 14.300781 -0.820312 14.613281 -0.523438 15.0625 -0.390625 L 15.0625 0 Z M 3.28125 -4.4375 C 3.28125 -3.46875 3.570312 -2.726562 4.15625 -2.21875 C 4.738281 -1.707031 5.457031 -1.453125 6.3125 -1.453125 C 7.101562 -1.453125 7.820312 -1.675781 8.46875 -2.125 C 9.113281 -2.570312 9.664062 -3.148438 10.125 -3.859375 C 10.582031 -4.578125 10.9375 -5.351562 11.1875 -6.1875 C 11.445312 -7.03125 11.578125 -7.835938 11.578125 -8.609375 L 11.578125 -9.5 L 7.828125 -8.484375 C 7.097656 -8.285156 6.378906 -8.019531 5.671875 -7.6875 C 4.960938 -7.363281 4.382812 -6.941406 3.9375 -6.421875 C 3.5 -5.910156 3.28125 -5.25 3.28125 -4.4375 Z M 3.28125 -4.4375 "/></g></g></g><g fill="#fae9d4" fill-opacity="1"><g transform="translate(94.554554, 38.001718)"><g><path d="M 1.9375 -11.40625 C 1.476562 -12.519531 1.09375 -13.28125 0.78125 -13.6875 C 0.476562 -14.09375 0.164062 -14.363281 -0.15625 -14.5 L -0.15625 -14.890625 L 4.140625 -14.890625 L 4.140625 -14.5 C 3.703125 -14.363281 3.519531 -14.09375 3.59375 -13.6875 C 3.675781 -13.28125 3.957031 -12.519531 4.4375 -11.40625 L 8.34375 -2.171875 L 11.859375 -11.34375 C 12.234375 -12.332031 12.382812 -13.082031 12.3125 -13.59375 C 12.238281 -14.101562 11.945312 -14.40625 11.4375 -14.5 L 11.4375 -14.890625 L 14.5 -14.890625 L 14.5 -14.5 C 14.082031 -14.363281 13.722656 -14.09375 13.421875 -13.6875 C 13.128906 -13.28125 12.765625 -12.5 12.328125 -11.34375 L 7.953125 0 L 6.703125 0 Z M 1.9375 -11.40625 "/></g></g></g><g fill="#fae9d4" fill-opacity="1"><g transform="translate(107.984277, 38.001718)"><g><path d="M 8.125 0.296875 C 7.3125 0.296875 6.488281 0.148438 5.65625 -0.140625 C 4.820312 -0.441406 4.054688 -0.894531 3.359375 -1.5 C 2.671875 -2.101562 2.117188 -2.863281 1.703125 -3.78125 C 1.285156 -4.695312 1.078125 -5.769531 1.078125 -7 C 1.078125 -8.625 1.4375 -10.039062 2.15625 -11.25 C 2.882812 -12.46875 3.84375 -13.410156 5.03125 -14.078125 C 6.21875 -14.753906 7.507812 -15.09375 8.90625 -15.09375 C 10.15625 -15.09375 11.222656 -14.847656 12.109375 -14.359375 C 12.992188 -13.878906 13.675781 -13.238281 14.15625 -12.4375 C 14.644531 -11.644531 14.898438 -10.773438 14.921875 -9.828125 L 3.28125 -9.828125 C 3.21875 -9.390625 3.1875 -8.929688 3.1875 -8.453125 C 3.1875 -7.109375 3.445312 -5.914062 3.96875 -4.875 C 4.5 -3.832031 5.242188 -3.019531 6.203125 -2.4375 C 7.171875 -1.863281 8.300781 -1.578125 9.59375 -1.578125 C 10.738281 -1.578125 11.738281 -1.816406 12.59375 -2.296875 C 13.445312 -2.773438 14.210938 -3.398438 14.890625 -4.171875 L 15.15625 -3.90625 C 14.664062 -3.207031 14.070312 -2.535156 13.375 -1.890625 C 12.675781 -1.242188 11.894531 -0.71875 11.03125 -0.3125 C 10.164062 0.09375 9.195312 0.296875 8.125 0.296875 Z M 3.359375 -10.21875 L 12.53125 -10.21875 C 12.4375 -10.894531 12.195312 -11.5625 11.8125 -12.21875 C 11.425781 -12.882812 10.910156 -13.441406 10.265625 -13.890625 C 9.617188 -14.335938 8.835938 -14.5625 7.921875 -14.5625 C 6.648438 -14.582031 5.628906 -14.175781 4.859375 -13.34375 C 4.097656 -12.507812 3.597656 -11.46875 3.359375 -10.21875 Z M 3.359375 -10.21875 "/></g></g></g><g fill="#fae9d4" fill-opacity="1"><g transform="translate(123.826069, 38.001718)"><g><path d="M 1.125 0 L 1.125 -0.390625 C 1.582031 -0.523438 1.894531 -0.820312 2.0625 -1.28125 C 2.238281 -1.738281 2.328125 -2.570312 2.328125 -3.78125 L 2.328125 -19.5625 C 2.328125 -20.257812 2.28125 -20.78125 2.1875 -21.125 C 2.101562 -21.476562 1.972656 -21.734375 1.796875 -21.890625 C 1.628906 -22.046875 1.40625 -22.1875 1.125 -22.3125 L 1.125 -22.640625 L 4.375 -24.0625 L 4.640625 -23.859375 L 4.640625 -3.78125 C 4.640625 -2.570312 4.722656 -1.738281 4.890625 -1.28125 C 5.066406 -0.820312 5.382812 -0.523438 5.84375 -0.390625 L 5.84375 0 Z M 1.125 0 "/></g></g></g><g fill="#fae9d4" fill-opacity="1"><g transform="translate(130.883415, 38.001718)"><g><path d="M 6.734375 0.265625 C 5.535156 0.265625 4.457031 0.117188 3.5 -0.171875 C 2.539062 -0.472656 1.8125 -0.785156 1.3125 -1.109375 L 1.046875 -4.703125 L 1.3125 -4.765625 C 1.945312 -3.359375 2.78125 -2.25 3.8125 -1.4375 C 4.84375 -0.632812 6.035156 -0.222656 7.390625 -0.203125 C 8.316406 -0.203125 9.082031 -0.457031 9.6875 -0.96875 C 10.300781 -1.476562 10.609375 -2.148438 10.609375 -2.984375 C 10.609375 -3.691406 10.398438 -4.265625 9.984375 -4.703125 C 9.578125 -5.140625 9.039062 -5.492188 8.375 -5.765625 C 7.71875 -6.046875 7 -6.304688 6.21875 -6.546875 C 5.289062 -6.847656 4.457031 -7.160156 3.71875 -7.484375 C 2.988281 -7.816406 2.414062 -8.25 2 -8.78125 C 1.582031 -9.320312 1.375 -10.039062 1.375 -10.9375 C 1.375 -12.101562 1.84375 -13.085938 2.78125 -13.890625 C 3.726562 -14.691406 5.066406 -15.09375 6.796875 -15.09375 C 7.765625 -15.09375 8.660156 -15.007812 9.484375 -14.84375 C 10.304688 -14.675781 10.945312 -14.492188 11.40625 -14.296875 L 11.53125 -11.25 L 11.234375 -11.203125 C 10.753906 -12.273438 10.066406 -13.128906 9.171875 -13.765625 C 8.273438 -14.398438 7.300781 -14.71875 6.25 -14.71875 C 5.238281 -14.71875 4.429688 -14.488281 3.828125 -14.03125 C 3.222656 -13.570312 2.921875 -12.960938 2.921875 -12.203125 C 2.921875 -11.585938 3.113281 -11.070312 3.5 -10.65625 C 3.882812 -10.238281 4.398438 -9.882812 5.046875 -9.59375 C 5.691406 -9.3125 6.398438 -9.039062 7.171875 -8.78125 C 7.753906 -8.601562 8.335938 -8.410156 8.921875 -8.203125 C 9.503906 -7.992188 10.035156 -7.734375 10.515625 -7.421875 C 11.003906 -7.117188 11.40625 -6.722656 11.71875 -6.234375 C 12.03125 -5.753906 12.1875 -5.132812 12.1875 -4.375 C 12.1875 -3.539062 11.976562 -2.769531 11.5625 -2.0625 C 11.15625 -1.363281 10.546875 -0.804688 9.734375 -0.390625 C 8.921875 0.0234375 7.921875 0.242188 6.734375 0.265625 Z M 6.734375 0.265625 "/></g></g></g></svg>