<svg xmlns="http://www.w3.org/2000/svg" xmlns:xlink="http://www.w3.org/1999/xlink" width="200" zoomAndPan="magnify" viewBox="0 0 150 60" height="80" preserveAspectRatio="xMidYMid meet" version="1.0"><defs><g/></defs><g fill="#fae9d4" fill-opacity="1"><g transform="translate(33.870327, 49.699105)"><g><path d="M 3.984375 0 L 3.984375 -0.78125 C 5.097656 -1.050781 5.851562 -1.644531 6.25 -2.5625 C 6.644531 -3.476562 6.84375 -5.144531 6.84375 -7.5625 L 6.84375 -36.734375 L 1.609375 -34.53125 L 1.484375 -34.953125 L 11.25 -41.984375 L 11.734375 -41.984375 L 11.734375 -7.5625 C 11.734375 -5.144531 11.929688 -3.476562 12.328125 -2.5625 C 12.722656 -1.644531 13.476562 -1.050781 14.59375 -0.78125 L 14.59375 0 Z M 3.984375 0 "/></g></g></g><g fill="#fae9d4" fill-opacity="1"><g transform="translate(51.850865, 49.699105)"><g><path d="M 3.984375 0 L 3.984375 -0.78125 C 5.097656 -1.050781 5.851562 -1.644531 6.25 -2.5625 C 6.644531 -3.476562 6.84375 -5.144531 6.84375 -7.5625 L 6.84375 -36.734375 L 1.609375 -34.53125 L 1.484375 -34.953125 L 11.25 -41.984375 L 11.734375 -41.984375 L 11.734375 -7.5625 C 11.734375 -5.144531 11.929688 -3.476562 12.328125 -2.5625 C 12.722656 -1.644531 13.476562 -1.050781 14.59375 -0.78125 L 14.59375 0 Z M 3.984375 0 "/></g></g></g><g fill="#fae9d4" fill-opacity="1"><g transform="translate(69.831402, 49.699105)"><g><path d="M 6.671875 0.421875 C 5.835938 0.421875 5.113281 0.101562 4.5 -0.53125 C 3.882812 -1.164062 3.578125 -1.921875 3.578125 -2.796875 C 3.578125 -3.671875 3.882812 -4.414062 4.5 -5.03125 C 5.113281 -5.644531 5.835938 -5.953125 6.671875 -5.953125 C 7.503906 -5.953125 8.21875 -5.644531 8.8125 -5.03125 C 9.40625 -4.414062 9.703125 -3.671875 9.703125 -2.796875 C 9.703125 -1.921875 9.40625 -1.164062 8.8125 -0.53125 C 8.21875 0.101562 7.503906 0.421875 6.671875 0.421875 Z M 3.578125 -22.453125 C 3.578125 -23.328125 3.882812 -24.070312 4.5 -24.6875 C 5.113281 -25.300781 5.835938 -25.609375 6.671875 -25.609375 C 7.503906 -25.609375 8.21875 -25.300781 8.8125 -24.6875 C 9.40625 -24.070312 9.703125 -23.328125 9.703125 -22.453125 C 9.703125 -21.578125 9.40625 -20.820312 8.8125 -20.1875 C 8.21875 -19.550781 7.503906 -19.234375 6.671875 -19.234375 C 5.835938 -19.234375 5.113281 -19.550781 4.5 -20.1875 C 3.882812 -20.820312 3.578125 -21.578125 3.578125 -22.453125 Z M 3.578125 -22.453125 "/></g></g></g><g fill="#fae9d4" fill-opacity="1"><g transform="translate(80.131509, 49.699105)"><g><path d="M 3.984375 0 L 3.984375 -0.78125 C 5.097656 -1.050781 5.851562 -1.644531 6.25 -2.5625 C 6.644531 -3.476562 6.84375 -5.144531 6.84375 -7.5625 L 6.84375 -36.734375 L 1.609375 -34.53125 L 1.484375 -34.953125 L 11.25 -41.984375 L 11.734375 -41.984375 L 11.734375 -7.5625 C 11.734375 -5.144531 11.929688 -3.476562 12.328125 -2.5625 C 12.722656 -1.644531 13.476562 -1.050781 14.59375 -0.78125 L 14.59375 0 Z M 3.984375 0 "/></g></g></g><g fill="#fae9d4" fill-opacity="1"><g transform="translate(98.112047, 49.699105)"><g><path d="M 3.984375 0 L 3.984375 -0.78125 C 5.097656 -1.050781 5.851562 -1.644531 6.25 -2.5625 C 6.644531 -3.476562 6.84375 -5.144531 6.84375 -7.5625 L 6.84375 -36.734375 L 1.609375 -34.53125 L 1.484375 -34.953125 L 11.25 -41.984375 L 11.734375 -41.984375 L 11.734375 -7.5625 C 11.734375 -5.144531 11.929688 -3.476562 12.328125 -2.5625 C 12.722656 -1.644531 13.476562 -1.050781 14.59375 -0.78125 L 14.59375 0 Z M 3.984375 0 "/></g></g></g></svg>