<svg xmlns="http://www.w3.org/2000/svg" xmlns:xlink="http://www.w3.org/1999/xlink" width="200" zoomAndPan="magnify" viewBox="0 0 150 60" height="80" preserveAspectRatio="xMidYMid meet" version="1.0"><defs><g/></defs><g fill="#fae9d4" fill-opacity="1"><g transform="translate(6.774544, 51.357741)"><g><path d="M 18.78125 -45.421875 L 19.703125 -45.09375 L 19.703125 -6.15625 C 19.703125 -4.800781 19.832031 -3.90625 20.09375 -3.46875 C 20.351562 -3.03125 20.703125 -2.703125 21.140625 -2.484375 C 21.492188 -2.304688 21.898438 -2.1875 22.359375 -2.125 C 22.816406 -2.0625 23.328125 -2.007812 23.890625 -1.96875 L 27.359375 -1.765625 L 27.359375 0.203125 C 26.960938 0.203125 26.304688 0.1875 25.390625 0.15625 C 24.472656 0.132812 23.476562 0.113281 22.40625 0.09375 C 21.34375 0.0703125 20.320312 0.0507812 19.34375 0.03125 C 18.363281 0.0078125 17.585938 0 17.015625 0 C 16.359375 0 15.503906 0.0078125 14.453125 0.03125 C 13.410156 0.0507812 12.34375 0.0703125 11.25 0.09375 C 10.164062 0.113281 9.164062 0.132812 8.25 0.15625 C 7.332031 0.1875 6.675781 0.203125 6.28125 0.203125 L 6.28125 -1.765625 L 9.890625 -1.96875 C 10.492188 -2.007812 10.992188 -2.050781 11.390625 -2.09375 C 11.785156 -2.132812 12.132812 -2.222656 12.4375 -2.359375 C 13.132812 -2.617188 13.601562 -3.007812 13.84375 -3.53125 C 14.082031 -4.050781 14.203125 -4.96875 14.203125 -6.28125 L 14.203125 -38.296875 C 14.203125 -39.160156 14.144531 -39.691406 14.03125 -39.890625 C 13.925781 -40.085938 13.8125 -40.1875 13.6875 -40.1875 C 13.6875 -40.1875 13.421875 -40.078125 12.890625 -39.859375 L 5.046875 -36.328125 L 4.390625 -36.328125 L 3.921875 -39.140625 C 6.585938 -40.054688 9.207031 -41.054688 11.78125 -42.140625 C 14.351562 -43.234375 16.6875 -44.328125 18.78125 -45.421875 Z M 18.78125 -45.421875 "/></g></g></g><g fill="#fae9d4" fill-opacity="1"><g transform="translate(35.899299, 51.357741)"><g><path d="M 18.78125 -45.421875 L 19.703125 -45.09375 L 19.703125 -6.15625 C 19.703125 -4.800781 19.832031 -3.90625 20.09375 -3.46875 C 20.351562 -3.03125 20.703125 -2.703125 21.140625 -2.484375 C 21.492188 -2.304688 21.898438 -2.1875 22.359375 -2.125 C 22.816406 -2.0625 23.328125 -2.007812 23.890625 -1.96875 L 27.359375 -1.765625 L 27.359375 0.203125 C 26.960938 0.203125 26.304688 0.1875 25.390625 0.15625 C 24.472656 0.132812 23.476562 0.113281 22.40625 0.09375 C 21.34375 0.0703125 20.320312 0.0507812 19.34375 0.03125 C 18.363281 0.0078125 17.585938 0 17.015625 0 C 16.359375 0 15.503906 0.0078125 14.453125 0.03125 C 13.410156 0.0507812 12.34375 0.0703125 11.25 0.09375 C 10.164062 0.113281 9.164062 0.132812 8.25 0.15625 C 7.332031 0.1875 6.675781 0.203125 6.28125 0.203125 L 6.28125 -1.765625 L 9.890625 -1.96875 C 10.492188 -2.007812 10.992188 -2.050781 11.390625 -2.09375 C 11.785156 -2.132812 12.132812 -2.222656 12.4375 -2.359375 C 13.132812 -2.617188 13.601562 -3.007812 13.84375 -3.53125 C 14.082031 -4.050781 14.203125 -4.96875 14.203125 -6.28125 L 14.203125 -38.296875 C 14.203125 -39.160156 14.144531 -39.691406 14.03125 -39.890625 C 13.925781 -40.085938 13.8125 -40.1875 13.6875 -40.1875 C 13.6875 -40.1875 13.421875 -40.078125 12.890625 -39.859375 L 5.046875 -36.328125 L 4.390625 -36.328125 L 3.921875 -39.140625 C 6.585938 -40.054688 9.207031 -41.054688 11.78125 -42.140625 C 14.351562 -43.234375 16.6875 -44.328125 18.78125 -45.421875 Z M 18.78125 -45.421875 "/></g></g></g><g fill="#fae9d4" fill-opacity="1"><g transform="translate(68.623941, 51.357741)"><g><path d="M 8.046875 -29.84375 C 9.054688 -29.84375 9.953125 -29.460938 10.734375 -28.703125 C 11.515625 -27.941406 11.90625 -27.054688 11.90625 -26.046875 C 11.90625 -25.046875 11.523438 -24.160156 10.765625 -23.390625 C 10.003906 -22.628906 9.097656 -22.25 8.046875 -22.25 C 7.046875 -22.25 6.171875 -22.628906 5.421875 -23.390625 C 4.679688 -24.160156 4.3125 -25.046875 4.3125 -26.046875 C 4.3125 -27.054688 4.679688 -27.941406 5.421875 -28.703125 C 6.171875 -29.460938 7.046875 -29.84375 8.046875 -29.84375 Z M 8.046875 -7.265625 C 9.054688 -7.265625 9.953125 -6.878906 10.734375 -6.109375 C 11.515625 -5.347656 11.90625 -4.46875 11.90625 -3.46875 C 11.90625 -2.46875 11.523438 -1.582031 10.765625 -0.8125 C 10.003906 -0.0507812 9.097656 0.328125 8.046875 0.328125 C 7.046875 0.328125 6.171875 -0.0507812 5.421875 -0.8125 C 4.679688 -1.582031 4.3125 -2.46875 4.3125 -3.46875 C 4.3125 -4.46875 4.679688 -5.347656 5.421875 -6.109375 C 6.171875 -6.878906 7.046875 -7.265625 8.046875 -7.265625 Z M 8.046875 -7.265625 "/></g></g></g><g fill="#fae9d4" fill-opacity="1"><g transform="translate(84.986268, 51.357741)"><g><path d="M 18.78125 -45.421875 L 19.703125 -45.09375 L 19.703125 -6.15625 C 19.703125 -4.800781 19.832031 -3.90625 20.09375 -3.46875 C 20.351562 -3.03125 20.703125 -2.703125 21.140625 -2.484375 C 21.492188 -2.304688 21.898438 -2.1875 22.359375 -2.125 C 22.816406 -2.0625 23.328125 -2.007812 23.890625 -1.96875 L 27.359375 -1.765625 L 27.359375 0.203125 C 26.960938 0.203125 26.304688 0.1875 25.390625 0.15625 C 24.472656 0.132812 23.476562 0.113281 22.40625 0.09375 C 21.34375 0.0703125 20.320312 0.0507812 19.34375 0.03125 C 18.363281 0.0078125 17.585938 0 17.015625 0 C 16.359375 0 15.503906 0.0078125 14.453125 0.03125 C 13.410156 0.0507812 12.34375 0.0703125 11.25 0.09375 C 10.164062 0.113281 9.164062 0.132812 8.25 0.15625 C 7.332031 0.1875 6.675781 0.203125 6.28125 0.203125 L 6.28125 -1.765625 L 9.890625 -1.96875 C 10.492188 -2.007812 10.992188 -2.050781 11.390625 -2.09375 C 11.785156 -2.132812 12.132812 -2.222656 12.4375 -2.359375 C 13.132812 -2.617188 13.601562 -3.007812 13.84375 -3.53125 C 14.082031 -4.050781 14.203125 -4.96875 14.203125 -6.28125 L 14.203125 -38.296875 C 14.203125 -39.160156 14.144531 -39.691406 14.03125 -39.890625 C 13.925781 -40.085938 13.8125 -40.1875 13.6875 -40.1875 C 13.6875 -40.1875 13.421875 -40.078125 12.890625 -39.859375 L 5.046875 -36.328125 L 4.390625 -36.328125 L 3.921875 -39.140625 C 6.585938 -40.054688 9.207031 -41.054688 11.78125 -42.140625 C 14.351562 -43.234375 16.6875 -44.328125 18.78125 -45.421875 Z M 18.78125 -45.421875 "/></g></g></g><g fill="#fae9d4" fill-opacity="1"><g transform="translate(114.111023, 51.357741)"><g><path d="M 18.78125 -45.421875 L 19.703125 -45.09375 L 19.703125 -6.15625 C 19.703125 -4.800781 19.832031 -3.90625 20.09375 -3.46875 C 20.351562 -3.03125 20.703125 -2.703125 21.140625 -2.484375 C 21.492188 -2.304688 21.898438 -2.1875 22.359375 -2.125 C 22.816406 -2.0625 23.328125 -2.007812 23.890625 -1.96875 L 27.359375 -1.765625 L 27.359375 0.203125 C 26.960938 0.203125 26.304688 0.1875 25.390625 0.15625 C 24.472656 0.132812 23.476562 0.113281 22.40625 0.09375 C 21.34375 0.0703125 20.320312 0.0507812 19.34375 0.03125 C 18.363281 0.0078125 17.585938 0 17.015625 0 C 16.359375 0 15.503906 0.0078125 14.453125 0.03125 C 13.410156 0.0507812 12.34375 0.0703125 11.25 0.09375 C 10.164062 0.113281 9.164062 0.132812 8.25 0.15625 C 7.332031 0.1875 6.675781 0.203125 6.28125 0.203125 L 6.28125 -1.765625 L 9.890625 -1.96875 C 10.492188 -2.007812 10.992188 -2.050781 11.390625 -2.09375 C 11.785156 -2.132812 12.132812 -2.222656 12.4375 -2.359375 C 13.132812 -2.617188 13.601562 -3.007812 13.84375 -3.53125 C 14.082031 -4.050781 14.203125 -4.96875 14.203125 -6.28125 L 14.203125 -38.296875 C 14.203125 -39.160156 14.144531 -39.691406 14.03125 -39.890625 C 13.925781 -40.085938 13.8125 -40.1875 13.6875 -40.1875 C 13.6875 -40.1875 13.421875 -40.078125 12.890625 -39.859375 L 5.046875 -36.328125 L 4.390625 -36.328125 L 3.921875 -39.140625 C 6.585938 -40.054688 9.207031 -41.054688 11.78125 -42.140625 C 14.351562 -43.234375 16.6875 -44.328125 18.78125 -45.421875 Z M 18.78125 -45.421875 "/></g></g></g><g fill="#fae9d4" fill-opacity="1"><g transform="translate(146.837038, 51.357741)"><g/></g></g></svg>